<?xml version="1.0" encoding="utf-8"?>
<!-- Generator: Adobe Illustrator 25.0.1, SVG Export Plug-In . SVG Version: 6.00 Build 0)  -->
<svg version="1.1" xmlns="http://www.w3.org/2000/svg" xmlns:xlink="http://www.w3.org/1999/xlink" x="0px" y="0px"
	 viewBox="0 0 203.5 351.9" style="enable-background:new 0 0 203.5 351.9;" xml:space="preserve">
<style type="text/css">
	.st0{fill:#FFFFFF;}
</style>
<g id="Capa_1">
	<g>
		<g>
			<path class="st0" d="M185.2,120c-10.1,0-18.3-8.2-18.3-18.3c0-35.9-29.2-65.2-65.2-65.2s-65.2,29.2-65.2,65.2
				c0,10.1-8.2,18.3-18.3,18.3S0,111.8,0,101.7C0,45.6,45.6,0,101.7,0s101.7,45.6,101.7,101.7C203.5,111.8,195.3,120,185.2,120z"/>
		</g>
		<path class="st0" d="M203.5,202.9l0-50.6c0-10.1-8.2-18.3-18.3-18.3c-10.1,0-18.3,8.2-18.3,18.3l0,50.6
			c0,35.9-29.2,65.2-65.2,65.2s-65.2-29.2-65.2-65.2v-50.6c0-10.1-8.2-18.3-18.3-18.3S0,142.2,0,152.3v50.6
			c0,49.8,36.1,91.4,83.5,100v12.4H54.2c-10.1,0-18.3,8.2-18.3,18.3s8.2,18.3,18.3,18.3h95c10.1,0,18.3-8.2,18.3-18.3
			s-8.2-18.3-18.3-18.3H120v-12.4C167.4,294.2,203.5,252.7,203.5,202.9z"/>
	</g>
</g>
<g id="Capa_2">
</g>
</svg>
